<?xml version="1.0" encoding="utf-8" standalone="no"?>
<!DOCTYPE svg PUBLIC "-//W3C//DTD SVG 1.1//EN"
  "http://www.w3.org/Graphics/SVG/1.1/DTD/svg11.dtd">
<svg xmlns:xlink="http://www.w3.org/1999/xlink" width="864pt" height="360pt" viewBox="0 0 864 360" xmlns="http://www.w3.org/2000/svg" version="1.1">
 <metadata>
  <rdf:RDF xmlns:dc="http://purl.org/dc/elements/1.1/" xmlns:cc="http://creativecommons.org/ns#" xmlns:rdf="http://www.w3.org/1999/02/22-rdf-syntax-ns#">
   <cc:Work>
    <dc:type rdf:resource="http://purl.org/dc/dcmitype/StillImage"/>
    <dc:date>2023-10-12T04:04:06.840166</dc:date>
    <dc:format>image/svg+xml</dc:format>
    <dc:creator>
     <cc:Agent>
      <dc:title>Matplotlib v3.8.0, https://matplotlib.org/</dc:title>
     </cc:Agent>
    </dc:creator>
   </cc:Work>
  </rdf:RDF>
 </metadata>
 <defs>
  <style type="text/css">*{stroke-linejoin: round; stroke-linecap: butt}</style>
 </defs>
 <g id="figure_1">
  <g id="patch_1">
   <path d="M 0 360 
L 864 360 
L 864 0 
L 0 0 
z
" style="fill: #ffffff"/>
  </g>
  <g id="axes_1">
   <g id="patch_2">
    <path d="M 108 320.4 
L 412.363636 320.4 
L 412.363636 43.2 
L 108 43.2 
z
" style="fill: #ffffff"/>
   </g>
   <g id="matplotlib.axis_1">
    <g id="xtick_1">
     <g id="line2d_1">
      <defs>
       <path id="m1e89a68ee6" d="M 0 0 
L 0 3.5 
" style="stroke: #000000; stroke-width: 0.8"/>
      </defs>
      <g>
       <use xlink:href="#m1e89a68ee6" x="121.834711" y="320.4" style="stroke: #000000; stroke-width: 0.8"/>
      </g>
     </g>
     <g id="text_1">
      <!-- 0 -->
      <g transform="translate(118.653461 334.998438) scale(0.1 -0.1)">
       <defs>
        <path id="DejaVuSans-30" d="M 2034 4250 
Q 1547 4250 1301 3770 
Q 1056 3291 1056 2328 
Q 1056 1369 1301 889 
Q 1547 409 2034 409 
Q 2525 409 2770 889 
Q 3016 1369 3016 2328 
Q 3016 3291 2770 3770 
Q 2525 4250 2034 4250 
z
M 2034 4750 
Q 2819 4750 3233 4129 
Q 3647 3509 3647 2328 
Q 3647 1150 3233 529 
Q 2819 -91 2034 -91 
Q 1250 -91 836 529 
Q 422 1150 422 2328 
Q 422 3509 836 4129 
Q 1250 4750 2034 4750 
z
" transform="scale(0.015625)"/>
       </defs>
       <use xlink:href="#DejaVuSans-30"/>
      </g>
     </g>
    </g>
    <g id="xtick_2">
     <g id="line2d_2">
      <g>
       <use xlink:href="#m1e89a68ee6" x="177.284453" y="320.4" style="stroke: #000000; stroke-width: 0.8"/>
      </g>
     </g>
     <g id="text_2">
      <!-- 100 -->
      <g transform="translate(167.740703 334.998438) scale(0.1 -0.1)">
       <defs>
        <path id="DejaVuSans-31" d="M 794 531 
L 1825 531 
L 1825 4091 
L 703 3866 
L 703 4441 
L 1819 4666 
L 2450 4666 
L 2450 531 
L 3481 531 
L 3481 0 
L 794 0 
L 794 531 
z
" transform="scale(0.015625)"/>
       </defs>
       <use xlink:href="#DejaVuSans-31"/>
       <use xlink:href="#DejaVuSans-30" x="63.623047"/>
       <use xlink:href="#DejaVuSans-30" x="127.246094"/>
      </g>
     </g>
    </g>
    <g id="xtick_3">
     <g id="line2d_3">
      <g>
       <use xlink:href="#m1e89a68ee6" x="232.734196" y="320.4" style="stroke: #000000; stroke-width: 0.8"/>
      </g>
     </g>
     <g id="text_3">
      <!-- 200 -->
      <g transform="translate(223.190446 334.998438) scale(0.1 -0.1)">
       <defs>
        <path id="DejaVuSans-32" d="M 1228 531 
L 3431 531 
L 3431 0 
L 469 0 
L 469 531 
Q 828 903 1448 1529 
Q 2069 2156 2228 2338 
Q 2531 2678 2651 2914 
Q 2772 3150 2772 3378 
Q 2772 3750 2511 3984 
Q 2250 4219 1831 4219 
Q 1534 4219 1204 4116 
Q 875 4013 500 3803 
L 500 4441 
Q 881 4594 1212 4672 
Q 1544 4750 1819 4750 
Q 2544 4750 2975 4387 
Q 3406 4025 3406 3419 
Q 3406 3131 3298 2873 
Q 3191 2616 2906 2266 
Q 2828 2175 2409 1742 
Q 1991 1309 1228 531 
z
" transform="scale(0.015625)"/>
       </defs>
       <use xlink:href="#DejaVuSans-32"/>
       <use xlink:href="#DejaVuSans-30" x="63.623047"/>
       <use xlink:href="#DejaVuSans-30" x="127.246094"/>
      </g>
     </g>
    </g>
    <g id="xtick_4">
     <g id="line2d_4">
      <g>
       <use xlink:href="#m1e89a68ee6" x="288.183938" y="320.4" style="stroke: #000000; stroke-width: 0.8"/>
      </g>
     </g>
     <g id="text_4">
      <!-- 300 -->
      <g transform="translate(278.640188 334.998438) scale(0.1 -0.1)">
       <defs>
        <path id="DejaVuSans-33" d="M 2597 2516 
Q 3050 2419 3304 2112 
Q 3559 1806 3559 1356 
Q 3559 666 3084 287 
Q 2609 -91 1734 -91 
Q 1441 -91 1130 -33 
Q 819 25 488 141 
L 488 750 
Q 750 597 1062 519 
Q 1375 441 1716 441 
Q 2309 441 2620 675 
Q 2931 909 2931 1356 
Q 2931 1769 2642 2001 
Q 2353 2234 1838 2234 
L 1294 2234 
L 1294 2753 
L 1863 2753 
Q 2328 2753 2575 2939 
Q 2822 3125 2822 3475 
Q 2822 3834 2567 4026 
Q 2313 4219 1838 4219 
Q 1578 4219 1281 4162 
Q 984 4106 628 3988 
L 628 4550 
Q 988 4650 1302 4700 
Q 1616 4750 1894 4750 
Q 2613 4750 3031 4423 
Q 3450 4097 3450 3541 
Q 3450 3153 3228 2886 
Q 3006 2619 2597 2516 
z
" transform="scale(0.015625)"/>
       </defs>
       <use xlink:href="#DejaVuSans-33"/>
       <use xlink:href="#DejaVuSans-30" x="63.623047"/>
       <use xlink:href="#DejaVuSans-30" x="127.246094"/>
      </g>
     </g>
    </g>
    <g id="xtick_5">
     <g id="line2d_5">
      <g>
       <use xlink:href="#m1e89a68ee6" x="343.633681" y="320.4" style="stroke: #000000; stroke-width: 0.8"/>
      </g>
     </g>
     <g id="text_5">
      <!-- 400 -->
      <g transform="translate(334.089931 334.998438) scale(0.1 -0.1)">
       <defs>
        <path id="DejaVuSans-34" d="M 2419 4116 
L 825 1625 
L 2419 1625 
L 2419 4116 
z
M 2253 4666 
L 3047 4666 
L 3047 1625 
L 3713 1625 
L 3713 1100 
L 3047 1100 
L 3047 0 
L 2419 0 
L 2419 1100 
L 313 1100 
L 313 1709 
L 2253 4666 
z
" transform="scale(0.015625)"/>
       </defs>
       <use xlink:href="#DejaVuSans-34"/>
       <use xlink:href="#DejaVuSans-30" x="63.623047"/>
       <use xlink:href="#DejaVuSans-30" x="127.246094"/>
      </g>
     </g>
    </g>
    <g id="xtick_6">
     <g id="line2d_6">
      <g>
       <use xlink:href="#m1e89a68ee6" x="399.083423" y="320.4" style="stroke: #000000; stroke-width: 0.8"/>
      </g>
     </g>
     <g id="text_6">
      <!-- 500 -->
      <g transform="translate(389.539673 334.998438) scale(0.1 -0.1)">
       <defs>
        <path id="DejaVuSans-35" d="M 691 4666 
L 3169 4666 
L 3169 4134 
L 1269 4134 
L 1269 2991 
Q 1406 3038 1543 3061 
Q 1681 3084 1819 3084 
Q 2600 3084 3056 2656 
Q 3513 2228 3513 1497 
Q 3513 744 3044 326 
Q 2575 -91 1722 -91 
Q 1428 -91 1123 -41 
Q 819 9 494 109 
L 494 744 
Q 775 591 1075 516 
Q 1375 441 1709 441 
Q 2250 441 2565 725 
Q 2881 1009 2881 1497 
Q 2881 1984 2565 2268 
Q 2250 2553 1709 2553 
Q 1456 2553 1204 2497 
Q 953 2441 691 2322 
L 691 4666 
z
" transform="scale(0.015625)"/>
       </defs>
       <use xlink:href="#DejaVuSans-35"/>
       <use xlink:href="#DejaVuSans-30" x="63.623047"/>
       <use xlink:href="#DejaVuSans-30" x="127.246094"/>
      </g>
     </g>
    </g>
   </g>
   <g id="matplotlib.axis_2">
    <g id="ytick_1">
     <g id="line2d_7">
      <defs>
       <path id="mabfc0e5fd6" d="M 0 0 
L -3.5 0 
" style="stroke: #000000; stroke-width: 0.8"/>
      </defs>
      <g>
       <use xlink:href="#mabfc0e5fd6" x="108" y="307.906716" style="stroke: #000000; stroke-width: 0.8"/>
      </g>
     </g>
     <g id="text_7">
      <!-- 0.00 -->
      <g transform="translate(78.734375 311.705935) scale(0.1 -0.1)">
       <defs>
        <path id="DejaVuSans-2e" d="M 684 794 
L 1344 794 
L 1344 0 
L 684 0 
L 684 794 
z
" transform="scale(0.015625)"/>
       </defs>
       <use xlink:href="#DejaVuSans-30"/>
       <use xlink:href="#DejaVuSans-2e" x="63.623047"/>
       <use xlink:href="#DejaVuSans-30" x="95.410156"/>
       <use xlink:href="#DejaVuSans-30" x="159.033203"/>
      </g>
     </g>
    </g>
    <g id="ytick_2">
     <g id="line2d_8">
      <g>
       <use xlink:href="#mabfc0e5fd6" x="108" y="271.743149" style="stroke: #000000; stroke-width: 0.8"/>
      </g>
     </g>
     <g id="text_8">
      <!-- 0.05 -->
      <g transform="translate(78.734375 275.542368) scale(0.1 -0.1)">
       <use xlink:href="#DejaVuSans-30"/>
       <use xlink:href="#DejaVuSans-2e" x="63.623047"/>
       <use xlink:href="#DejaVuSans-30" x="95.410156"/>
       <use xlink:href="#DejaVuSans-35" x="159.033203"/>
      </g>
     </g>
    </g>
    <g id="ytick_3">
     <g id="line2d_9">
      <g>
       <use xlink:href="#mabfc0e5fd6" x="108" y="235.579583" style="stroke: #000000; stroke-width: 0.8"/>
      </g>
     </g>
     <g id="text_9">
      <!-- 0.10 -->
      <g transform="translate(78.734375 239.378801) scale(0.1 -0.1)">
       <use xlink:href="#DejaVuSans-30"/>
       <use xlink:href="#DejaVuSans-2e" x="63.623047"/>
       <use xlink:href="#DejaVuSans-31" x="95.410156"/>
       <use xlink:href="#DejaVuSans-30" x="159.033203"/>
      </g>
     </g>
    </g>
    <g id="ytick_4">
     <g id="line2d_10">
      <g>
       <use xlink:href="#mabfc0e5fd6" x="108" y="199.416016" style="stroke: #000000; stroke-width: 0.8"/>
      </g>
     </g>
     <g id="text_10">
      <!-- 0.15 -->
      <g transform="translate(78.734375 203.215234) scale(0.1 -0.1)">
       <use xlink:href="#DejaVuSans-30"/>
       <use xlink:href="#DejaVuSans-2e" x="63.623047"/>
       <use xlink:href="#DejaVuSans-31" x="95.410156"/>
       <use xlink:href="#DejaVuSans-35" x="159.033203"/>
      </g>
     </g>
    </g>
    <g id="ytick_5">
     <g id="line2d_11">
      <g>
       <use xlink:href="#mabfc0e5fd6" x="108" y="163.252449" style="stroke: #000000; stroke-width: 0.8"/>
      </g>
     </g>
     <g id="text_11">
      <!-- 0.20 -->
      <g transform="translate(78.734375 167.051667) scale(0.1 -0.1)">
       <use xlink:href="#DejaVuSans-30"/>
       <use xlink:href="#DejaVuSans-2e" x="63.623047"/>
       <use xlink:href="#DejaVuSans-32" x="95.410156"/>
       <use xlink:href="#DejaVuSans-30" x="159.033203"/>
      </g>
     </g>
    </g>
    <g id="ytick_6">
     <g id="line2d_12">
      <g>
       <use xlink:href="#mabfc0e5fd6" x="108" y="127.088882" style="stroke: #000000; stroke-width: 0.8"/>
      </g>
     </g>
     <g id="text_12">
      <!-- 0.25 -->
      <g transform="translate(78.734375 130.888101) scale(0.1 -0.1)">
       <use xlink:href="#DejaVuSans-30"/>
       <use xlink:href="#DejaVuSans-2e" x="63.623047"/>
       <use xlink:href="#DejaVuSans-32" x="95.410156"/>
       <use xlink:href="#DejaVuSans-35" x="159.033203"/>
      </g>
     </g>
    </g>
    <g id="ytick_7">
     <g id="line2d_13">
      <g>
       <use xlink:href="#mabfc0e5fd6" x="108" y="90.925315" style="stroke: #000000; stroke-width: 0.8"/>
      </g>
     </g>
     <g id="text_13">
      <!-- 0.30 -->
      <g transform="translate(78.734375 94.724534) scale(0.1 -0.1)">
       <use xlink:href="#DejaVuSans-30"/>
       <use xlink:href="#DejaVuSans-2e" x="63.623047"/>
       <use xlink:href="#DejaVuSans-33" x="95.410156"/>
       <use xlink:href="#DejaVuSans-30" x="159.033203"/>
      </g>
     </g>
    </g>
    <g id="ytick_8">
     <g id="line2d_14">
      <g>
       <use xlink:href="#mabfc0e5fd6" x="108" y="54.761748" style="stroke: #000000; stroke-width: 0.8"/>
      </g>
     </g>
     <g id="text_14">
      <!-- 0.35 -->
      <g transform="translate(78.734375 58.560967) scale(0.1 -0.1)">
       <use xlink:href="#DejaVuSans-30"/>
       <use xlink:href="#DejaVuSans-2e" x="63.623047"/>
       <use xlink:href="#DejaVuSans-33" x="95.410156"/>
       <use xlink:href="#DejaVuSans-35" x="159.033203"/>
      </g>
     </g>
    </g>
    <g id="text_15">
     <!-- Loss -->
     <g transform="translate(71.406875 199.3475) rotate(-90) scale(0.16 -0.16)">
      <defs>
       <path id="DejaVuSans-4c" d="M 628 4666 
L 1259 4666 
L 1259 531 
L 3531 531 
L 3531 0 
L 628 0 
L 628 4666 
z
" transform="scale(0.015625)"/>
       <path id="DejaVuSans-6f" d="M 1959 3097 
Q 1497 3097 1228 2736 
Q 959 2375 959 1747 
Q 959 1119 1226 758 
Q 1494 397 1959 397 
Q 2419 397 2687 759 
Q 2956 1122 2956 1747 
Q 2956 2369 2687 2733 
Q 2419 3097 1959 3097 
z
M 1959 3584 
Q 2709 3584 3137 3096 
Q 3566 2609 3566 1747 
Q 3566 888 3137 398 
Q 2709 -91 1959 -91 
Q 1206 -91 779 398 
Q 353 888 353 1747 
Q 353 2609 779 3096 
Q 1206 3584 1959 3584 
z
" transform="scale(0.015625)"/>
       <path id="DejaVuSans-73" d="M 2834 3397 
L 2834 2853 
Q 2591 2978 2328 3040 
Q 2066 3103 1784 3103 
Q 1356 3103 1142 2972 
Q 928 2841 928 2578 
Q 928 2378 1081 2264 
Q 1234 2150 1697 2047 
L 1894 2003 
Q 2506 1872 2764 1633 
Q 3022 1394 3022 966 
Q 3022 478 2636 193 
Q 2250 -91 1575 -91 
Q 1294 -91 989 -36 
Q 684 19 347 128 
L 347 722 
Q 666 556 975 473 
Q 1284 391 1588 391 
Q 1994 391 2212 530 
Q 2431 669 2431 922 
Q 2431 1156 2273 1281 
Q 2116 1406 1581 1522 
L 1381 1569 
Q 847 1681 609 1914 
Q 372 2147 372 2553 
Q 372 3047 722 3315 
Q 1072 3584 1716 3584 
Q 2034 3584 2315 3537 
Q 2597 3491 2834 3397 
z
" transform="scale(0.015625)"/>
      </defs>
      <use xlink:href="#DejaVuSans-4c"/>
      <use xlink:href="#DejaVuSans-6f" x="53.962891"/>
      <use xlink:href="#DejaVuSans-73" x="115.144531"/>
      <use xlink:href="#DejaVuSans-73" x="167.244141"/>
     </g>
    </g>
   </g>
   <g id="line2d_15">
    <path d="M 121.834711 55.8 
L 122.389208 254.845637 
L 122.943706 281.090614 
L 123.498203 289.207299 
L 124.0527 292.521986 
L 124.607198 296.992143 
L 125.161695 297.999606 
L 125.716193 300.316501 
L 126.27069 300.083771 
L 126.825188 301.295626 
L 127.379685 301.19509 
L 127.934182 302.34582 
L 128.48868 302.911343 
L 129.597675 304.708668 
L 130.152172 304.778541 
L 130.70667 304.193761 
L 131.261167 305.175655 
L 131.815664 302.937276 
L 132.370162 301.881571 
L 132.924659 303.970584 
L 133.479157 304.282492 
L 134.033654 305.626631 
L 134.588152 305.72029 
L 135.142649 306.213206 
L 135.697146 306.335241 
L 136.806141 305.994726 
L 137.360639 306.570845 
L 137.915136 305.561759 
L 138.469633 298.935518 
L 139.024131 305.065075 
L 139.578628 306.273936 
L 140.133126 306.650426 
L 140.687623 306.440055 
L 141.242121 306.643718 
L 141.796618 306.339734 
L 142.351115 306.730491 
L 142.905613 306.527966 
L 143.46011 298.597893 
L 144.014608 305.618419 
L 144.569105 306.435671 
L 146.232597 306.562554 
L 146.787095 306.79948 
L 147.341592 306.62856 
L 147.89609 305.668098 
L 148.450587 306.540131 
L 149.005085 306.985374 
L 150.668577 306.740709 
L 151.223074 307.069036 
L 151.777572 306.729707 
L 152.332069 306.99877 
L 152.886567 307.104565 
L 153.441064 307.078902 
L 154.550059 307.265741 
L 155.659054 307.154104 
L 156.213551 307.275707 
L 156.768048 302.987668 
L 157.322546 301.123841 
L 157.877043 304.541469 
L 158.431541 306.749744 
L 158.986038 306.98623 
L 160.64953 307.223437 
L 161.758525 307.3496 
L 162.313023 306.764254 
L 162.86752 307.290832 
L 163.976515 307.280347 
L 164.531012 307.022808 
L 165.08551 307.392263 
L 166.194505 307.105405 
L 167.3035 307.245011 
L 167.857997 307.439236 
L 168.412494 307.410277 
L 168.966992 301.873633 
L 169.521489 300.07547 
L 170.075987 305.685535 
L 170.630484 306.807649 
L 171.184982 307.136573 
L 171.739479 306.530255 
L 172.293976 307.154355 
L 173.402971 307.410983 
L 174.511966 307.383217 
L 175.066464 306.984072 
L 175.620961 307.30493 
L 176.175458 307.316802 
L 176.729956 305.078949 
L 177.284453 301.275992 
L 177.838951 306.574333 
L 178.393448 307.24474 
L 178.947945 307.356484 
L 180.05694 307.342738 
L 180.611438 307.44319 
L 181.720433 307.28964 
L 182.27493 306.401951 
L 182.829427 306.139133 
L 183.383925 307.04927 
L 183.938422 307.335295 
L 184.49292 307.106688 
L 185.047417 307.373742 
L 185.601915 306.138364 
L 186.156412 306.869437 
L 186.710909 307.038217 
L 187.265407 307.397328 
L 187.819904 307.099526 
L 188.374402 307.463132 
L 188.928899 304.923724 
L 189.483397 299.129505 
L 190.037894 306.332912 
L 190.592391 306.467558 
L 191.701386 307.282228 
L 192.255884 307.421928 
L 193.364879 306.975457 
L 193.919376 307.366601 
L 195.028371 307.533304 
L 196.137366 307.242897 
L 196.691863 307.544408 
L 197.24636 307.591078 
L 197.800858 307.52186 
L 198.355355 302.396708 
L 198.909853 306.734222 
L 199.46435 305.113957 
L 200.018848 307.007661 
L 201.127842 307.303665 
L 201.68234 307.431603 
L 202.236837 306.573545 
L 202.791335 306.645296 
L 203.345832 307.37476 
L 203.90033 307.240541 
L 204.454827 307.406096 
L 205.009324 307.194769 
L 206.672817 307.604868 
L 207.227314 307.511322 
L 208.336309 307.552815 
L 208.890806 307.580003 
L 209.999801 299.188443 
L 210.554299 304.652243 
L 211.108796 306.728227 
L 211.663294 307.148131 
L 212.217791 307.3961 
L 214.990278 307.56582 
L 215.544776 306.667497 
L 216.099273 306.894363 
L 216.65377 307.480729 
L 217.208268 307.572952 
L 218.87176 307.543778 
L 219.980755 307.576564 
L 220.535252 307.263501 
L 221.08975 304.96884 
L 221.644247 307.16754 
L 222.198745 307.367185 
L 222.753242 306.310182 
L 223.307739 304.157853 
L 223.862237 304.885504 
L 224.416734 306.715803 
L 224.971232 307.30279 
L 225.525729 307.429413 
L 226.080227 307.319855 
L 226.634724 307.349757 
L 227.743719 307.541293 
L 228.298216 306.165833 
L 229.407211 307.378501 
L 230.516206 307.602411 
L 231.070703 307.177893 
L 231.625201 304.34365 
L 232.179698 304.388717 
L 232.734196 306.748667 
L 233.288693 307.399647 
L 234.397688 307.537659 
L 236.06118 307.598745 
L 237.170175 307.624302 
L 237.724672 307.49427 
L 238.27917 307.648086 
L 238.833667 307.613843 
L 239.388165 298.567126 
L 239.942662 305.803464 
L 240.49716 306.713299 
L 241.606154 307.394973 
L 242.715149 307.511193 
L 243.269647 304.807075 
L 243.824144 306.545068 
L 244.378642 307.244229 
L 244.933139 307.560281 
L 247.705626 307.636757 
L 248.260124 305.447068 
L 248.814621 306.040237 
L 249.369118 306.927354 
L 249.923616 307.072704 
L 250.478113 307.440474 
L 251.032611 307.427256 
L 252.696103 307.664787 
L 254.359595 307.568927 
L 254.914093 307.658498 
L 255.46859 307.576563 
L 256.577585 307.690007 
L 257.132082 306.75853 
L 257.68658 305.454463 
L 258.241077 301.105605 
L 258.795575 305.921387 
L 259.350072 306.986146 
L 260.459067 307.48733 
L 261.568062 307.620732 
L 262.122559 307.449407 
L 262.677057 307.643113 
L 263.231554 307.669139 
L 263.786051 307.425336 
L 264.895046 307.640542 
L 266.558539 307.549224 
L 267.113036 307.585075 
L 267.667533 291.495896 
L 268.222031 304.690294 
L 268.776528 306.059743 
L 269.331026 306.257893 
L 269.885523 306.178305 
L 270.440021 307.233471 
L 272.65801 307.612042 
L 275.430497 307.55212 
L 275.984995 307.682346 
L 277.648487 307.662155 
L 278.202984 299.674482 
L 278.757482 303.865748 
L 279.311979 305.808276 
L 279.866477 306.540533 
L 280.975472 307.30553 
L 281.529969 307.357459 
L 282.084466 307.55285 
L 282.638964 307.613854 
L 283.193461 307.42796 
L 284.302456 307.684241 
L 285.965948 307.62516 
L 286.520446 306.79775 
L 287.074943 307.330648 
L 288.183938 307.566147 
L 288.738436 306.879803 
L 289.292933 304.455944 
L 289.84743 307.111257 
L 290.401928 307.524389 
L 290.956425 307.475015 
L 292.06542 307.686131 
L 292.619918 307.421731 
L 294.837907 307.672523 
L 295.392405 300.952568 
L 295.946902 304.888578 
L 296.501399 304.209911 
L 297.055897 306.673446 
L 297.610394 306.263022 
L 298.719389 307.373222 
L 299.828384 307.36748 
L 300.382881 307.56905 
L 302.046374 307.657202 
L 303.155369 307.599732 
L 304.818861 307.623218 
L 305.373358 307.554526 
L 305.927856 307.702838 
L 307.591348 307.723665 
L 308.145845 303.485644 
L 308.700343 300.397768 
L 309.25484 304.703114 
L 309.809338 306.571776 
L 310.363835 306.408734 
L 310.918333 306.967289 
L 311.47283 307.314071 
L 312.581825 307.564986 
L 314.245317 307.684251 
L 317.017804 307.673905 
L 317.572302 307.054159 
L 318.126799 305.647073 
L 318.681296 306.605632 
L 319.235794 307.154552 
L 320.899286 307.587278 
L 321.453784 307.493578 
L 322.008281 307.664715 
L 325.335266 307.605742 
L 325.889763 305.91291 
L 326.44426 305.930672 
L 326.998758 306.942337 
L 328.107753 307.467507 
L 329.216748 307.601224 
L 329.771245 304.544663 
L 330.325742 306.149184 
L 330.88024 306.269911 
L 331.434737 307.307341 
L 331.989235 307.487938 
L 333.09823 307.434881 
L 333.652727 306.383553 
L 334.761722 307.270866 
L 335.870717 307.57296 
L 336.425214 307.628166 
L 336.979711 307.36612 
L 337.534209 307.341672 
L 338.088706 307.616928 
L 338.643204 307.676915 
L 339.197701 307.5873 
L 339.752199 307.718687 
L 342.524686 307.688945 
L 343.633681 307.71436 
L 344.188178 303.844994 
L 344.742675 305.922007 
L 345.297173 307.112897 
L 345.85167 307.43645 
L 346.406168 307.571051 
L 350.842147 307.60037 
L 351.396645 306.376108 
L 351.951142 304.676037 
L 352.505639 307.3952 
L 353.060137 307.59462 
L 354.723629 307.681032 
L 355.278127 307.615765 
L 356.387121 307.681834 
L 356.941619 307.256941 
L 357.496116 307.029086 
L 358.050614 307.394418 
L 358.605111 304.219504 
L 359.159608 302.803539 
L 359.714106 307.025497 
L 360.268603 306.869331 
L 360.823101 307.480656 
L 361.932096 307.604311 
L 365.25908 307.722422 
L 365.813578 307.363657 
L 366.368075 307.277383 
L 366.922572 307.643488 
L 367.47707 306.228861 
L 368.031567 304.143679 
L 368.586065 304.663921 
L 369.140562 306.653405 
L 369.69506 307.075438 
L 370.804054 307.506888 
L 371.913049 307.404249 
L 372.467547 307.637091 
L 374.131039 307.719061 
L 378.567018 307.664981 
L 379.121516 306.727643 
L 379.676013 304.097909 
L 380.230511 305.881769 
L 381.339505 306.979214 
L 381.894003 307.373979 
L 383.002998 307.677363 
L 383.557495 307.700215 
L 384.111993 307.606664 
L 385.220987 307.737081 
L 386.329982 307.714828 
L 387.993475 307.753853 
L 389.656967 307.735423 
L 390.211464 306.194945 
L 390.765962 306.396751 
L 391.320459 307.09988 
L 391.874957 307.403723 
L 392.429454 307.551028 
L 393.538449 307.621771 
L 394.647444 307.741571 
L 395.201941 307.643696 
L 395.756438 307.683984 
L 396.310936 306.933457 
L 396.865433 306.689869 
L 397.419931 307.24057 
L 397.974428 307.56269 
L 398.528926 307.623138 
L 398.528926 307.623138 
" clip-path="url(#pb9f721fc58)" style="fill: none; stroke: #1f77b4; stroke-width: 1.5; stroke-linecap: square"/>
   </g>
   <g id="line2d_16">
    <path d="M 121.834711 226.584875 
L 122.389208 275.875676 
L 122.943706 288.058992 
L 123.498203 286.622719 
L 124.0527 292.793355 
L 125.161695 301.121194 
L 125.716193 298.994228 
L 126.27069 301.927906 
L 126.825188 303.454559 
L 127.379685 299.845463 
L 127.934182 291.059995 
L 128.48868 304.02425 
L 129.043177 304.821024 
L 129.597675 304.607729 
L 130.152172 305.080718 
L 130.70667 304.631589 
L 131.261167 305.638214 
L 131.815664 273.764072 
L 132.370162 304.797217 
L 132.924659 304.820091 
L 134.033654 306.290525 
L 134.588152 305.508901 
L 135.142649 306.422834 
L 135.697146 306.126805 
L 136.251644 304.686191 
L 136.806141 306.430915 
L 137.360639 305.956692 
L 138.469633 303.320467 
L 139.024131 306.402288 
L 139.578628 306.330143 
L 140.133126 306.722666 
L 140.687623 306.644047 
L 141.242121 306.771839 
L 141.796618 306.513318 
L 142.351115 307.009222 
L 142.905613 305.623076 
L 143.46011 303.932758 
L 144.014608 306.497706 
L 144.569105 306.750786 
L 145.123603 306.674757 
L 145.6781 306.988832 
L 146.232597 306.974061 
L 146.787095 307.088286 
L 147.341592 306.299421 
L 147.89609 306.427655 
L 148.450587 307.076822 
L 149.005085 307.253855 
L 149.559582 307.226702 
L 150.114079 306.529878 
L 150.668577 307.268964 
L 151.223074 307.303209 
L 151.777572 306.591952 
L 152.332069 307.31795 
L 152.886567 307.238044 
L 153.441064 307.35284 
L 153.995561 307.107356 
L 155.104556 307.296094 
L 155.659054 306.79614 
L 156.213551 307.462657 
L 156.768048 298.778623 
L 157.322546 304.882798 
L 157.877043 306.561001 
L 158.431541 306.704449 
L 159.540536 307.30559 
L 160.095033 307.287042 
L 160.64953 307.157229 
L 161.204028 307.397034 
L 161.758525 307.441608 
L 162.313023 307.209999 
L 163.422018 307.47333 
L 166.194505 307.30015 
L 166.749002 307.187981 
L 167.3035 307.262396 
L 167.857997 307.523956 
L 168.412494 307.450996 
L 168.966992 303.573492 
L 170.075987 306.436817 
L 170.630484 307.130347 
L 172.293976 307.381043 
L 173.402971 307.498364 
L 175.620961 307.439681 
L 176.175458 307.296649 
L 176.729956 290.243674 
L 177.284453 306.110769 
L 177.838951 307.093556 
L 178.393448 307.216974 
L 178.947945 307.460612 
L 180.611438 307.534276 
L 181.165935 307.285971 
L 181.720433 307.385268 
L 182.27493 306.616613 
L 183.383925 307.397127 
L 183.938422 307.384776 
L 184.49292 307.501829 
L 185.601915 306.990088 
L 186.710909 307.186771 
L 187.265407 307.519305 
L 187.819904 307.45511 
L 188.374402 307.607282 
L 188.928899 305.168641 
L 189.483397 305.626063 
L 190.037894 306.882407 
L 191.701386 307.435753 
L 192.255884 307.475867 
L 192.810381 306.952862 
L 193.364879 307.320375 
L 193.919376 307.533036 
L 194.473873 307.397703 
L 195.028371 307.561193 
L 195.582868 306.675453 
L 196.137366 307.432042 
L 196.691863 307.627934 
L 197.24636 307.584824 
L 197.800858 307.382638 
L 198.909853 306.573471 
L 199.46435 306.605569 
L 200.018848 307.325699 
L 200.573345 307.106242 
L 201.127842 307.51918 
L 201.68234 307.524692 
L 202.236837 299.676175 
L 202.791335 307.299515 
L 203.345832 307.510799 
L 205.563822 307.455646 
L 206.118319 307.621601 
L 206.672817 307.654708 
L 207.227314 307.555437 
L 207.781812 307.669906 
L 208.890806 307.637279 
L 209.445304 305.243113 
L 209.999801 305.024354 
L 210.554299 306.350296 
L 211.108796 307.054982 
L 211.663294 307.363139 
L 212.772288 307.557937 
L 214.990278 307.639997 
L 215.544776 306.253126 
L 216.099273 307.443774 
L 217.208268 307.635287 
L 217.762765 307.568605 
L 218.317263 307.326963 
L 218.87176 307.656383 
L 219.426257 307.585138 
L 219.980755 307.651706 
L 220.535252 306.959014 
L 221.08975 306.68505 
L 221.644247 307.509338 
L 222.198745 307.609093 
L 222.753242 306.293699 
L 223.307739 306.462202 
L 223.862237 305.956314 
L 224.416734 307.258413 
L 224.971232 307.478057 
L 225.525729 307.533433 
L 226.080227 307.146207 
L 226.634724 307.471676 
L 227.189221 307.600735 
L 227.743719 307.614489 
L 228.298216 306.376568 
L 228.852714 307.363438 
L 229.961709 307.63519 
L 230.516206 307.664536 
L 231.070703 306.348342 
L 231.625201 301.290019 
L 232.179698 307.051566 
L 233.288693 307.549639 
L 237.170175 307.626037 
L 237.724672 307.464284 
L 238.27917 307.714735 
L 238.833667 307.596364 
L 239.388165 305.156152 
L 239.942662 306.552781 
L 240.49716 307.114096 
L 241.051657 307.186929 
L 242.160652 307.573194 
L 242.715149 307.605007 
L 243.269647 306.146852 
L 243.824144 307.200116 
L 244.378642 307.474608 
L 247.151129 307.717184 
L 247.705626 306.429662 
L 248.260124 306.092096 
L 248.814621 306.825266 
L 249.369118 305.185189 
L 249.923616 307.354341 
L 250.478113 307.580088 
L 251.032611 307.362374 
L 251.587108 307.627642 
L 254.359595 307.638217 
L 254.914093 307.71506 
L 255.46859 307.651774 
L 256.577585 307.695461 
L 257.132082 307.153688 
L 257.68658 298.636506 
L 258.241077 305.448731 
L 258.795575 306.724078 
L 259.350072 307.254039 
L 260.459067 307.609639 
L 261.568062 307.663742 
L 264.340549 307.597673 
L 264.895046 307.717618 
L 265.449544 307.557008 
L 266.004041 307.712066 
L 266.558539 307.712573 
L 267.113036 211.713503 
L 267.667533 303.010042 
L 268.222031 305.678896 
L 268.776528 306.596726 
L 269.331026 306.68324 
L 270.440021 307.409872 
L 270.994518 307.37769 
L 271.549015 307.534895 
L 274.321503 307.615017 
L 274.876 307.529757 
L 275.430497 307.703489 
L 277.648487 307.684101 
L 278.202984 304.009783 
L 278.757482 305.366778 
L 279.311979 306.362887 
L 279.866477 306.971531 
L 280.420974 307.28476 
L 280.975472 307.469928 
L 282.638964 307.688357 
L 283.193461 307.554809 
L 283.747959 307.705731 
L 285.965948 307.727216 
L 286.520446 307.027832 
L 287.074943 307.562124 
L 288.183938 307.664544 
L 288.738436 306.82404 
L 289.292933 307.022033 
L 289.84743 307.425406 
L 290.401928 307.604919 
L 291.510923 307.654971 
L 292.06542 307.69218 
L 292.619918 307.135159 
L 293.174415 307.654511 
L 294.28341 307.692517 
L 294.837907 307.736734 
L 295.392405 293.093267 
L 295.946902 305.70046 
L 297.055897 307.013179 
L 297.610394 307.012918 
L 298.719389 307.51256 
L 299.273887 307.470338 
L 299.828384 307.593401 
L 301.491876 307.686177 
L 302.046374 307.460565 
L 303.155369 307.712406 
L 303.709866 307.461235 
L 304.264363 307.700673 
L 304.818861 307.587816 
L 305.373358 307.076509 
L 305.927856 307.726526 
L 306.482353 307.763776 
L 307.036851 307.560794 
L 307.591348 307.700776 
L 308.145845 305.191036 
L 308.700343 305.668599 
L 309.809338 306.894157 
L 312.027327 307.573684 
L 313.136322 307.702478 
L 317.017804 307.728764 
L 317.572302 297.357968 
L 318.126799 306.60775 
L 318.681296 306.902285 
L 319.235794 307.396623 
L 319.790291 307.553965 
L 320.344789 307.416039 
L 320.899286 307.671163 
L 321.453784 307.611945 
L 323.671773 307.767452 
L 324.780768 307.760755 
L 325.335266 306.60107 
L 325.889763 305.926005 
L 326.998758 307.300102 
L 327.553255 307.520361 
L 329.216748 307.733514 
L 329.771245 305.973174 
L 330.325742 306.87689 
L 330.88024 307.241035 
L 331.989235 307.623925 
L 333.09823 307.591629 
L 333.652727 306.453614 
L 334.207224 307.149897 
L 334.761722 307.430424 
L 335.870717 307.653901 
L 336.425214 307.709311 
L 336.979711 307.350483 
L 337.534209 307.610704 
L 338.643204 307.714897 
L 339.197701 307.675398 
L 339.752199 307.763562 
L 340.861193 307.711092 
L 342.524686 307.776324 
L 343.633681 307.772278 
L 344.188178 306.013032 
L 344.742675 306.938375 
L 345.297173 307.37613 
L 345.85167 307.575905 
L 346.960665 307.677454 
L 348.624157 307.637846 
L 349.733152 307.757684 
L 350.842147 307.685486 
L 351.396645 306.558721 
L 351.951142 307.235834 
L 352.505639 307.564382 
L 353.060137 307.68043 
L 354.169132 307.620857 
L 354.723629 307.735354 
L 355.278127 307.679358 
L 356.387121 307.741731 
L 356.941619 306.584974 
L 357.496116 307.413243 
L 358.050614 307.572895 
L 359.159608 306.856385 
L 359.714106 307.265503 
L 360.823101 307.565665 
L 364.150085 307.742486 
L 365.25908 307.744364 
L 365.813578 307.557771 
L 366.368075 307.581976 
L 366.922572 307.72275 
L 368.031567 306.296578 
L 368.586065 306.368197 
L 369.140562 306.94408 
L 369.69506 307.280759 
L 370.804054 307.604478 
L 377.458023 307.764922 
L 378.012521 307.343468 
L 378.567018 307.740469 
L 379.121516 306.471658 
L 379.676013 306.288476 
L 380.230511 306.794197 
L 383.002998 307.719473 
L 386.88448 307.776991 
L 387.993475 307.727534 
L 389.656967 307.798172 
L 390.211464 306.573209 
L 390.765962 307.141732 
L 391.874957 307.554114 
L 392.429454 307.672537 
L 393.538449 307.724739 
L 395.201941 307.749333 
L 395.756438 307.725207 
L 396.310936 307.239258 
L 396.865433 307.089734 
L 397.419931 307.470986 
L 397.974428 307.684485 
L 398.528926 307.706822 
L 398.528926 307.706822 
" clip-path="url(#pb9f721fc58)" style="fill: none; stroke: #ff7f0e; stroke-width: 1.5; stroke-linecap: square"/>
   </g>
   <g id="line2d_17">
    <path d="M 389.102469 307.8 
" clip-path="url(#pb9f721fc58)" style="fill: none; stroke: #ff0000; stroke-width: 1.5; stroke-linecap: square"/>
    <defs>
     <path id="m8cc01f940b" d="M -3 3 
L 3 -3 
M -3 -3 
L 3 3 
" style="stroke: #ff0000"/>
    </defs>
    <g clip-path="url(#pb9f721fc58)">
     <use xlink:href="#m8cc01f940b" x="389.102469" y="307.8" style="fill: #ff0000; stroke: #ff0000"/>
    </g>
   </g>
   <g id="patch_3">
    <path d="M 108 320.4 
L 108 43.2 
" style="fill: none; stroke: #000000; stroke-width: 0.8; stroke-linejoin: miter; stroke-linecap: square"/>
   </g>
   <g id="patch_4">
    <path d="M 412.363636 320.4 
L 412.363636 43.2 
" style="fill: none; stroke: #000000; stroke-width: 0.8; stroke-linejoin: miter; stroke-linecap: square"/>
   </g>
   <g id="patch_5">
    <path d="M 108 320.4 
L 412.363636 320.4 
" style="fill: none; stroke: #000000; stroke-width: 0.8; stroke-linejoin: miter; stroke-linecap: square"/>
   </g>
   <g id="patch_6">
    <path d="M 108 43.2 
L 412.363636 43.2 
" style="fill: none; stroke: #000000; stroke-width: 0.8; stroke-linejoin: miter; stroke-linecap: square"/>
   </g>
   <g id="text_16">
    <!-- Best epoch: 482 with loss: 0.000 -->
    <g transform="translate(162.097756 37.2) scale(0.12 -0.12)">
     <defs>
      <path id="DejaVuSans-42" d="M 1259 2228 
L 1259 519 
L 2272 519 
Q 2781 519 3026 730 
Q 3272 941 3272 1375 
Q 3272 1813 3026 2020 
Q 2781 2228 2272 2228 
L 1259 2228 
z
M 1259 4147 
L 1259 2741 
L 2194 2741 
Q 2656 2741 2882 2914 
Q 3109 3088 3109 3444 
Q 3109 3797 2882 3972 
Q 2656 4147 2194 4147 
L 1259 4147 
z
M 628 4666 
L 2241 4666 
Q 2963 4666 3353 4366 
Q 3744 4066 3744 3513 
Q 3744 3084 3544 2831 
Q 3344 2578 2956 2516 
Q 3422 2416 3680 2098 
Q 3938 1781 3938 1306 
Q 3938 681 3513 340 
Q 3088 0 2303 0 
L 628 0 
L 628 4666 
z
" transform="scale(0.015625)"/>
      <path id="DejaVuSans-65" d="M 3597 1894 
L 3597 1613 
L 953 1613 
Q 991 1019 1311 708 
Q 1631 397 2203 397 
Q 2534 397 2845 478 
Q 3156 559 3463 722 
L 3463 178 
Q 3153 47 2828 -22 
Q 2503 -91 2169 -91 
Q 1331 -91 842 396 
Q 353 884 353 1716 
Q 353 2575 817 3079 
Q 1281 3584 2069 3584 
Q 2775 3584 3186 3129 
Q 3597 2675 3597 1894 
z
M 3022 2063 
Q 3016 2534 2758 2815 
Q 2500 3097 2075 3097 
Q 1594 3097 1305 2825 
Q 1016 2553 972 2059 
L 3022 2063 
z
" transform="scale(0.015625)"/>
      <path id="DejaVuSans-74" d="M 1172 4494 
L 1172 3500 
L 2356 3500 
L 2356 3053 
L 1172 3053 
L 1172 1153 
Q 1172 725 1289 603 
Q 1406 481 1766 481 
L 2356 481 
L 2356 0 
L 1766 0 
Q 1100 0 847 248 
Q 594 497 594 1153 
L 594 3053 
L 172 3053 
L 172 3500 
L 594 3500 
L 594 4494 
L 1172 4494 
z
" transform="scale(0.015625)"/>
      <path id="DejaVuSans-20" transform="scale(0.015625)"/>
      <path id="DejaVuSans-70" d="M 1159 525 
L 1159 -1331 
L 581 -1331 
L 581 3500 
L 1159 3500 
L 1159 2969 
Q 1341 3281 1617 3432 
Q 1894 3584 2278 3584 
Q 2916 3584 3314 3078 
Q 3713 2572 3713 1747 
Q 3713 922 3314 415 
Q 2916 -91 2278 -91 
Q 1894 -91 1617 61 
Q 1341 213 1159 525 
z
M 3116 1747 
Q 3116 2381 2855 2742 
Q 2594 3103 2138 3103 
Q 1681 3103 1420 2742 
Q 1159 2381 1159 1747 
Q 1159 1113 1420 752 
Q 1681 391 2138 391 
Q 2594 391 2855 752 
Q 3116 1113 3116 1747 
z
" transform="scale(0.015625)"/>
      <path id="DejaVuSans-63" d="M 3122 3366 
L 3122 2828 
Q 2878 2963 2633 3030 
Q 2388 3097 2138 3097 
Q 1578 3097 1268 2742 
Q 959 2388 959 1747 
Q 959 1106 1268 751 
Q 1578 397 2138 397 
Q 2388 397 2633 464 
Q 2878 531 3122 666 
L 3122 134 
Q 2881 22 2623 -34 
Q 2366 -91 2075 -91 
Q 1284 -91 818 406 
Q 353 903 353 1747 
Q 353 2603 823 3093 
Q 1294 3584 2113 3584 
Q 2378 3584 2631 3529 
Q 2884 3475 3122 3366 
z
" transform="scale(0.015625)"/>
      <path id="DejaVuSans-68" d="M 3513 2113 
L 3513 0 
L 2938 0 
L 2938 2094 
Q 2938 2591 2744 2837 
Q 2550 3084 2163 3084 
Q 1697 3084 1428 2787 
Q 1159 2491 1159 1978 
L 1159 0 
L 581 0 
L 581 4863 
L 1159 4863 
L 1159 2956 
Q 1366 3272 1645 3428 
Q 1925 3584 2291 3584 
Q 2894 3584 3203 3211 
Q 3513 2838 3513 2113 
z
" transform="scale(0.015625)"/>
      <path id="DejaVuSans-3a" d="M 750 794 
L 1409 794 
L 1409 0 
L 750 0 
L 750 794 
z
M 750 3309 
L 1409 3309 
L 1409 2516 
L 750 2516 
L 750 3309 
z
" transform="scale(0.015625)"/>
      <path id="DejaVuSans-38" d="M 2034 2216 
Q 1584 2216 1326 1975 
Q 1069 1734 1069 1313 
Q 1069 891 1326 650 
Q 1584 409 2034 409 
Q 2484 409 2743 651 
Q 3003 894 3003 1313 
Q 3003 1734 2745 1975 
Q 2488 2216 2034 2216 
z
M 1403 2484 
Q 997 2584 770 2862 
Q 544 3141 544 3541 
Q 544 4100 942 4425 
Q 1341 4750 2034 4750 
Q 2731 4750 3128 4425 
Q 3525 4100 3525 3541 
Q 3525 3141 3298 2862 
Q 3072 2584 2669 2484 
Q 3125 2378 3379 2068 
Q 3634 1759 3634 1313 
Q 3634 634 3220 271 
Q 2806 -91 2034 -91 
Q 1263 -91 848 271 
Q 434 634 434 1313 
Q 434 1759 690 2068 
Q 947 2378 1403 2484 
z
M 1172 3481 
Q 1172 3119 1398 2916 
Q 1625 2713 2034 2713 
Q 2441 2713 2670 2916 
Q 2900 3119 2900 3481 
Q 2900 3844 2670 4047 
Q 2441 4250 2034 4250 
Q 1625 4250 1398 4047 
Q 1172 3844 1172 3481 
z
" transform="scale(0.015625)"/>
      <path id="DejaVuSans-77" d="M 269 3500 
L 844 3500 
L 1563 769 
L 2278 3500 
L 2956 3500 
L 3675 769 
L 4391 3500 
L 4966 3500 
L 4050 0 
L 3372 0 
L 2619 2869 
L 1863 0 
L 1184 0 
L 269 3500 
z
" transform="scale(0.015625)"/>
      <path id="DejaVuSans-69" d="M 603 3500 
L 1178 3500 
L 1178 0 
L 603 0 
L 603 3500 
z
M 603 4863 
L 1178 4863 
L 1178 4134 
L 603 4134 
L 603 4863 
z
" transform="scale(0.015625)"/>
      <path id="DejaVuSans-6c" d="M 603 4863 
L 1178 4863 
L 1178 0 
L 603 0 
L 603 4863 
z
" transform="scale(0.015625)"/>
     </defs>
     <use xlink:href="#DejaVuSans-42"/>
     <use xlink:href="#DejaVuSans-65" x="68.603516"/>
     <use xlink:href="#DejaVuSans-73" x="130.126953"/>
     <use xlink:href="#DejaVuSans-74" x="182.226562"/>
     <use xlink:href="#DejaVuSans-20" x="221.435547"/>
     <use xlink:href="#DejaVuSans-65" x="253.222656"/>
     <use xlink:href="#DejaVuSans-70" x="314.746094"/>
     <use xlink:href="#DejaVuSans-6f" x="378.222656"/>
     <use xlink:href="#DejaVuSans-63" x="439.404297"/>
     <use xlink:href="#DejaVuSans-68" x="494.384766"/>
     <use xlink:href="#DejaVuSans-3a" x="557.763672"/>
     <use xlink:href="#DejaVuSans-20" x="591.455078"/>
     <use xlink:href="#DejaVuSans-34" x="623.242188"/>
     <use xlink:href="#DejaVuSans-38" x="686.865234"/>
     <use xlink:href="#DejaVuSans-32" x="750.488281"/>
     <use xlink:href="#DejaVuSans-20" x="814.111328"/>
     <use xlink:href="#DejaVuSans-77" x="845.898438"/>
     <use xlink:href="#DejaVuSans-69" x="927.685547"/>
     <use xlink:href="#DejaVuSans-74" x="955.46875"/>
     <use xlink:href="#DejaVuSans-68" x="994.677734"/>
     <use xlink:href="#DejaVuSans-20" x="1058.056641"/>
     <use xlink:href="#DejaVuSans-6c" x="1089.84375"/>
     <use xlink:href="#DejaVuSans-6f" x="1117.626953"/>
     <use xlink:href="#DejaVuSans-73" x="1178.808594"/>
     <use xlink:href="#DejaVuSans-73" x="1230.908203"/>
     <use xlink:href="#DejaVuSans-3a" x="1283.007812"/>
     <use xlink:href="#DejaVuSans-20" x="1316.699219"/>
     <use xlink:href="#DejaVuSans-30" x="1348.486328"/>
     <use xlink:href="#DejaVuSans-2e" x="1412.109375"/>
     <use xlink:href="#DejaVuSans-30" x="1443.896484"/>
     <use xlink:href="#DejaVuSans-30" x="1507.519531"/>
     <use xlink:href="#DejaVuSans-30" x="1571.142578"/>
    </g>
   </g>
   <g id="legend_1">
    <g id="patch_7">
     <path d="M 298.869886 95.234375 
L 405.363636 95.234375 
Q 407.363636 95.234375 407.363636 93.234375 
L 407.363636 50.2 
Q 407.363636 48.2 405.363636 48.2 
L 298.869886 48.2 
Q 296.869886 48.2 296.869886 50.2 
L 296.869886 93.234375 
Q 296.869886 95.234375 298.869886 95.234375 
z
" style="fill: #ffffff; opacity: 0.8; stroke: #cccccc; stroke-linejoin: miter"/>
    </g>
    <g id="line2d_18">
     <path d="M 300.869886 56.298437 
L 310.869886 56.298437 
L 320.869886 56.298437 
" style="fill: none; stroke: #1f77b4; stroke-width: 1.5; stroke-linecap: square"/>
    </g>
    <g id="text_17">
     <!-- Training Loss -->
     <g transform="translate(328.869886 59.798437) scale(0.1 -0.1)">
      <defs>
       <path id="DejaVuSans-54" d="M -19 4666 
L 3928 4666 
L 3928 4134 
L 2272 4134 
L 2272 0 
L 1638 0 
L 1638 4134 
L -19 4134 
L -19 4666 
z
" transform="scale(0.015625)"/>
       <path id="DejaVuSans-72" d="M 2631 2963 
Q 2534 3019 2420 3045 
Q 2306 3072 2169 3072 
Q 1681 3072 1420 2755 
Q 1159 2438 1159 1844 
L 1159 0 
L 581 0 
L 581 3500 
L 1159 3500 
L 1159 2956 
Q 1341 3275 1631 3429 
Q 1922 3584 2338 3584 
Q 2397 3584 2469 3576 
Q 2541 3569 2628 3553 
L 2631 2963 
z
" transform="scale(0.015625)"/>
       <path id="DejaVuSans-61" d="M 2194 1759 
Q 1497 1759 1228 1600 
Q 959 1441 959 1056 
Q 959 750 1161 570 
Q 1363 391 1709 391 
Q 2188 391 2477 730 
Q 2766 1069 2766 1631 
L 2766 1759 
L 2194 1759 
z
M 3341 1997 
L 3341 0 
L 2766 0 
L 2766 531 
Q 2569 213 2275 61 
Q 1981 -91 1556 -91 
Q 1019 -91 701 211 
Q 384 513 384 1019 
Q 384 1609 779 1909 
Q 1175 2209 1959 2209 
L 2766 2209 
L 2766 2266 
Q 2766 2663 2505 2880 
Q 2244 3097 1772 3097 
Q 1472 3097 1187 3025 
Q 903 2953 641 2809 
L 641 3341 
Q 956 3463 1253 3523 
Q 1550 3584 1831 3584 
Q 2591 3584 2966 3190 
Q 3341 2797 3341 1997 
z
" transform="scale(0.015625)"/>
       <path id="DejaVuSans-6e" d="M 3513 2113 
L 3513 0 
L 2938 0 
L 2938 2094 
Q 2938 2591 2744 2837 
Q 2550 3084 2163 3084 
Q 1697 3084 1428 2787 
Q 1159 2491 1159 1978 
L 1159 0 
L 581 0 
L 581 3500 
L 1159 3500 
L 1159 2956 
Q 1366 3272 1645 3428 
Q 1925 3584 2291 3584 
Q 2894 3584 3203 3211 
Q 3513 2838 3513 2113 
z
" transform="scale(0.015625)"/>
       <path id="DejaVuSans-67" d="M 2906 1791 
Q 2906 2416 2648 2759 
Q 2391 3103 1925 3103 
Q 1463 3103 1205 2759 
Q 947 2416 947 1791 
Q 947 1169 1205 825 
Q 1463 481 1925 481 
Q 2391 481 2648 825 
Q 2906 1169 2906 1791 
z
M 3481 434 
Q 3481 -459 3084 -895 
Q 2688 -1331 1869 -1331 
Q 1566 -1331 1297 -1286 
Q 1028 -1241 775 -1147 
L 775 -588 
Q 1028 -725 1275 -790 
Q 1522 -856 1778 -856 
Q 2344 -856 2625 -561 
Q 2906 -266 2906 331 
L 2906 616 
Q 2728 306 2450 153 
Q 2172 0 1784 0 
Q 1141 0 747 490 
Q 353 981 353 1791 
Q 353 2603 747 3093 
Q 1141 3584 1784 3584 
Q 2172 3584 2450 3431 
Q 2728 3278 2906 2969 
L 2906 3500 
L 3481 3500 
L 3481 434 
z
" transform="scale(0.015625)"/>
      </defs>
      <use xlink:href="#DejaVuSans-54"/>
      <use xlink:href="#DejaVuSans-72" x="46.333984"/>
      <use xlink:href="#DejaVuSans-61" x="87.447266"/>
      <use xlink:href="#DejaVuSans-69" x="148.726562"/>
      <use xlink:href="#DejaVuSans-6e" x="176.509766"/>
      <use xlink:href="#DejaVuSans-69" x="239.888672"/>
      <use xlink:href="#DejaVuSans-6e" x="267.671875"/>
      <use xlink:href="#DejaVuSans-67" x="331.050781"/>
      <use xlink:href="#DejaVuSans-20" x="394.527344"/>
      <use xlink:href="#DejaVuSans-4c" x="426.314453"/>
      <use xlink:href="#DejaVuSans-6f" x="480.277344"/>
      <use xlink:href="#DejaVuSans-73" x="541.458984"/>
      <use xlink:href="#DejaVuSans-73" x="593.558594"/>
     </g>
    </g>
    <g id="line2d_19">
     <path d="M 300.869886 70.976562 
L 310.869886 70.976562 
L 320.869886 70.976562 
" style="fill: none; stroke: #ff7f0e; stroke-width: 1.5; stroke-linecap: square"/>
    </g>
    <g id="text_18">
     <!-- Validation Loss -->
     <g transform="translate(328.869886 74.476562) scale(0.1 -0.1)">
      <defs>
       <path id="DejaVuSans-56" d="M 1831 0 
L 50 4666 
L 709 4666 
L 2188 738 
L 3669 4666 
L 4325 4666 
L 2547 0 
L 1831 0 
z
" transform="scale(0.015625)"/>
       <path id="DejaVuSans-64" d="M 2906 2969 
L 2906 4863 
L 3481 4863 
L 3481 0 
L 2906 0 
L 2906 525 
Q 2725 213 2448 61 
Q 2172 -91 1784 -91 
Q 1150 -91 751 415 
Q 353 922 353 1747 
Q 353 2572 751 3078 
Q 1150 3584 1784 3584 
Q 2172 3584 2448 3432 
Q 2725 3281 2906 2969 
z
M 947 1747 
Q 947 1113 1208 752 
Q 1469 391 1925 391 
Q 2381 391 2643 752 
Q 2906 1113 2906 1747 
Q 2906 2381 2643 2742 
Q 2381 3103 1925 3103 
Q 1469 3103 1208 2742 
Q 947 2381 947 1747 
z
" transform="scale(0.015625)"/>
      </defs>
      <use xlink:href="#DejaVuSans-56"/>
      <use xlink:href="#DejaVuSans-61" x="60.658203"/>
      <use xlink:href="#DejaVuSans-6c" x="121.9375"/>
      <use xlink:href="#DejaVuSans-69" x="149.720703"/>
      <use xlink:href="#DejaVuSans-64" x="177.503906"/>
      <use xlink:href="#DejaVuSans-61" x="240.980469"/>
      <use xlink:href="#DejaVuSans-74" x="302.259766"/>
      <use xlink:href="#DejaVuSans-69" x="341.46875"/>
      <use xlink:href="#DejaVuSans-6f" x="369.251953"/>
      <use xlink:href="#DejaVuSans-6e" x="430.433594"/>
      <use xlink:href="#DejaVuSans-20" x="493.8125"/>
      <use xlink:href="#DejaVuSans-4c" x="525.599609"/>
      <use xlink:href="#DejaVuSans-6f" x="579.5625"/>
      <use xlink:href="#DejaVuSans-73" x="640.744141"/>
      <use xlink:href="#DejaVuSans-73" x="692.84375"/>
     </g>
    </g>
    <g id="line2d_20">
     <path d="M 300.869886 85.654687 
L 310.869886 85.654687 
L 320.869886 85.654687 
" style="fill: none; stroke: #ff0000; stroke-width: 1.5; stroke-linecap: square"/>
     <g>
      <use xlink:href="#m8cc01f940b" x="310.869886" y="85.654687" style="fill: #ff0000; stroke: #ff0000"/>
     </g>
    </g>
    <g id="text_19">
     <!-- best model -->
     <g transform="translate(328.869886 89.154687) scale(0.1 -0.1)">
      <defs>
       <path id="DejaVuSans-62" d="M 3116 1747 
Q 3116 2381 2855 2742 
Q 2594 3103 2138 3103 
Q 1681 3103 1420 2742 
Q 1159 2381 1159 1747 
Q 1159 1113 1420 752 
Q 1681 391 2138 391 
Q 2594 391 2855 752 
Q 3116 1113 3116 1747 
z
M 1159 2969 
Q 1341 3281 1617 3432 
Q 1894 3584 2278 3584 
Q 2916 3584 3314 3078 
Q 3713 2572 3713 1747 
Q 3713 922 3314 415 
Q 2916 -91 2278 -91 
Q 1894 -91 1617 61 
Q 1341 213 1159 525 
L 1159 0 
L 581 0 
L 581 4863 
L 1159 4863 
L 1159 2969 
z
" transform="scale(0.015625)"/>
       <path id="DejaVuSans-6d" d="M 3328 2828 
Q 3544 3216 3844 3400 
Q 4144 3584 4550 3584 
Q 5097 3584 5394 3201 
Q 5691 2819 5691 2113 
L 5691 0 
L 5113 0 
L 5113 2094 
Q 5113 2597 4934 2840 
Q 4756 3084 4391 3084 
Q 3944 3084 3684 2787 
Q 3425 2491 3425 1978 
L 3425 0 
L 2847 0 
L 2847 2094 
Q 2847 2600 2669 2842 
Q 2491 3084 2119 3084 
Q 1678 3084 1418 2786 
Q 1159 2488 1159 1978 
L 1159 0 
L 581 0 
L 581 3500 
L 1159 3500 
L 1159 2956 
Q 1356 3278 1631 3431 
Q 1906 3584 2284 3584 
Q 2666 3584 2933 3390 
Q 3200 3197 3328 2828 
z
" transform="scale(0.015625)"/>
      </defs>
      <use xlink:href="#DejaVuSans-62"/>
      <use xlink:href="#DejaVuSans-65" x="63.476562"/>
      <use xlink:href="#DejaVuSans-73" x="125"/>
      <use xlink:href="#DejaVuSans-74" x="177.099609"/>
      <use xlink:href="#DejaVuSans-20" x="216.308594"/>
      <use xlink:href="#DejaVuSans-6d" x="248.095703"/>
      <use xlink:href="#DejaVuSans-6f" x="345.507812"/>
      <use xlink:href="#DejaVuSans-64" x="406.689453"/>
      <use xlink:href="#DejaVuSans-65" x="470.166016"/>
      <use xlink:href="#DejaVuSans-6c" x="531.689453"/>
     </g>
    </g>
   </g>
  </g>
  <g id="axes_2">
   <g id="patch_8">
    <path d="M 473.236364 320.4 
L 777.6 320.4 
L 777.6 43.2 
L 473.236364 43.2 
z
" style="fill: #ffffff"/>
   </g>
   <g id="matplotlib.axis_3">
    <g id="xtick_7">
     <g id="line2d_21">
      <g>
       <use xlink:href="#m1e89a68ee6" x="487.071074" y="320.4" style="stroke: #000000; stroke-width: 0.8"/>
      </g>
     </g>
     <g id="text_20">
      <!-- 0 -->
      <g transform="translate(483.889824 334.998438) scale(0.1 -0.1)">
       <use xlink:href="#DejaVuSans-30"/>
      </g>
     </g>
    </g>
    <g id="xtick_8">
     <g id="line2d_22">
      <g>
       <use xlink:href="#m1e89a68ee6" x="542.520817" y="320.4" style="stroke: #000000; stroke-width: 0.8"/>
      </g>
     </g>
     <g id="text_21">
      <!-- 100 -->
      <g transform="translate(532.977067 334.998438) scale(0.1 -0.1)">
       <use xlink:href="#DejaVuSans-31"/>
       <use xlink:href="#DejaVuSans-30" x="63.623047"/>
       <use xlink:href="#DejaVuSans-30" x="127.246094"/>
      </g>
     </g>
    </g>
    <g id="xtick_9">
     <g id="line2d_23">
      <g>
       <use xlink:href="#m1e89a68ee6" x="597.970559" y="320.4" style="stroke: #000000; stroke-width: 0.8"/>
      </g>
     </g>
     <g id="text_22">
      <!-- 200 -->
      <g transform="translate(588.426809 334.998438) scale(0.1 -0.1)">
       <use xlink:href="#DejaVuSans-32"/>
       <use xlink:href="#DejaVuSans-30" x="63.623047"/>
       <use xlink:href="#DejaVuSans-30" x="127.246094"/>
      </g>
     </g>
    </g>
    <g id="xtick_10">
     <g id="line2d_24">
      <g>
       <use xlink:href="#m1e89a68ee6" x="653.420302" y="320.4" style="stroke: #000000; stroke-width: 0.8"/>
      </g>
     </g>
     <g id="text_23">
      <!-- 300 -->
      <g transform="translate(643.876552 334.998438) scale(0.1 -0.1)">
       <use xlink:href="#DejaVuSans-33"/>
       <use xlink:href="#DejaVuSans-30" x="63.623047"/>
       <use xlink:href="#DejaVuSans-30" x="127.246094"/>
      </g>
     </g>
    </g>
    <g id="xtick_11">
     <g id="line2d_25">
      <g>
       <use xlink:href="#m1e89a68ee6" x="708.870044" y="320.4" style="stroke: #000000; stroke-width: 0.8"/>
      </g>
     </g>
     <g id="text_24">
      <!-- 400 -->
      <g transform="translate(699.326294 334.998438) scale(0.1 -0.1)">
       <use xlink:href="#DejaVuSans-34"/>
       <use xlink:href="#DejaVuSans-30" x="63.623047"/>
       <use xlink:href="#DejaVuSans-30" x="127.246094"/>
      </g>
     </g>
    </g>
    <g id="xtick_12">
     <g id="line2d_26">
      <g>
       <use xlink:href="#m1e89a68ee6" x="764.319787" y="320.4" style="stroke: #000000; stroke-width: 0.8"/>
      </g>
     </g>
     <g id="text_25">
      <!-- 500 -->
      <g transform="translate(754.776037 334.998438) scale(0.1 -0.1)">
       <use xlink:href="#DejaVuSans-35"/>
       <use xlink:href="#DejaVuSans-30" x="63.623047"/>
       <use xlink:href="#DejaVuSans-30" x="127.246094"/>
      </g>
     </g>
    </g>
   </g>
   <g id="matplotlib.axis_4">
    <g id="ytick_9">
     <g id="line2d_27">
      <g>
       <use xlink:href="#mabfc0e5fd6" x="473.236364" y="319.608341" style="stroke: #000000; stroke-width: 0.8"/>
      </g>
     </g>
     <g id="text_26">
      <!-- 0.984 -->
      <g transform="translate(437.608239 323.40756) scale(0.1 -0.1)">
       <defs>
        <path id="DejaVuSans-39" d="M 703 97 
L 703 672 
Q 941 559 1184 500 
Q 1428 441 1663 441 
Q 2288 441 2617 861 
Q 2947 1281 2994 2138 
Q 2813 1869 2534 1725 
Q 2256 1581 1919 1581 
Q 1219 1581 811 2004 
Q 403 2428 403 3163 
Q 403 3881 828 4315 
Q 1253 4750 1959 4750 
Q 2769 4750 3195 4129 
Q 3622 3509 3622 2328 
Q 3622 1225 3098 567 
Q 2575 -91 1691 -91 
Q 1453 -91 1209 -44 
Q 966 3 703 97 
z
M 1959 2075 
Q 2384 2075 2632 2365 
Q 2881 2656 2881 3163 
Q 2881 3666 2632 3958 
Q 2384 4250 1959 4250 
Q 1534 4250 1286 3958 
Q 1038 3666 1038 3163 
Q 1038 2656 1286 2365 
Q 1534 2075 1959 2075 
z
" transform="scale(0.015625)"/>
       </defs>
       <use xlink:href="#DejaVuSans-30"/>
       <use xlink:href="#DejaVuSans-2e" x="63.623047"/>
       <use xlink:href="#DejaVuSans-39" x="95.410156"/>
       <use xlink:href="#DejaVuSans-38" x="159.033203"/>
       <use xlink:href="#DejaVuSans-34" x="222.65625"/>
      </g>
     </g>
    </g>
    <g id="ytick_10">
     <g id="line2d_28">
      <g>
       <use xlink:href="#mabfc0e5fd6" x="473.236364" y="286.632299" style="stroke: #000000; stroke-width: 0.8"/>
      </g>
     </g>
     <g id="text_27">
      <!-- 0.986 -->
      <g transform="translate(437.608239 290.431518) scale(0.1 -0.1)">
       <defs>
        <path id="DejaVuSans-36" d="M 2113 2584 
Q 1688 2584 1439 2293 
Q 1191 2003 1191 1497 
Q 1191 994 1439 701 
Q 1688 409 2113 409 
Q 2538 409 2786 701 
Q 3034 994 3034 1497 
Q 3034 2003 2786 2293 
Q 2538 2584 2113 2584 
z
M 3366 4563 
L 3366 3988 
Q 3128 4100 2886 4159 
Q 2644 4219 2406 4219 
Q 1781 4219 1451 3797 
Q 1122 3375 1075 2522 
Q 1259 2794 1537 2939 
Q 1816 3084 2150 3084 
Q 2853 3084 3261 2657 
Q 3669 2231 3669 1497 
Q 3669 778 3244 343 
Q 2819 -91 2113 -91 
Q 1303 -91 875 529 
Q 447 1150 447 2328 
Q 447 3434 972 4092 
Q 1497 4750 2381 4750 
Q 2619 4750 2861 4703 
Q 3103 4656 3366 4563 
z
" transform="scale(0.015625)"/>
       </defs>
       <use xlink:href="#DejaVuSans-30"/>
       <use xlink:href="#DejaVuSans-2e" x="63.623047"/>
       <use xlink:href="#DejaVuSans-39" x="95.410156"/>
       <use xlink:href="#DejaVuSans-38" x="159.033203"/>
       <use xlink:href="#DejaVuSans-36" x="222.65625"/>
      </g>
     </g>
    </g>
    <g id="ytick_11">
     <g id="line2d_29">
      <g>
       <use xlink:href="#mabfc0e5fd6" x="473.236364" y="253.656256" style="stroke: #000000; stroke-width: 0.8"/>
      </g>
     </g>
     <g id="text_28">
      <!-- 0.988 -->
      <g transform="translate(437.608239 257.455475) scale(0.1 -0.1)">
       <use xlink:href="#DejaVuSans-30"/>
       <use xlink:href="#DejaVuSans-2e" x="63.623047"/>
       <use xlink:href="#DejaVuSans-39" x="95.410156"/>
       <use xlink:href="#DejaVuSans-38" x="159.033203"/>
       <use xlink:href="#DejaVuSans-38" x="222.65625"/>
      </g>
     </g>
    </g>
    <g id="ytick_12">
     <g id="line2d_30">
      <g>
       <use xlink:href="#mabfc0e5fd6" x="473.236364" y="220.680213" style="stroke: #000000; stroke-width: 0.8"/>
      </g>
     </g>
     <g id="text_29">
      <!-- 0.990 -->
      <g transform="translate(437.608239 224.479432) scale(0.1 -0.1)">
       <use xlink:href="#DejaVuSans-30"/>
       <use xlink:href="#DejaVuSans-2e" x="63.623047"/>
       <use xlink:href="#DejaVuSans-39" x="95.410156"/>
       <use xlink:href="#DejaVuSans-39" x="159.033203"/>
       <use xlink:href="#DejaVuSans-30" x="222.65625"/>
      </g>
     </g>
    </g>
    <g id="ytick_13">
     <g id="line2d_31">
      <g>
       <use xlink:href="#mabfc0e5fd6" x="473.236364" y="187.704171" style="stroke: #000000; stroke-width: 0.8"/>
      </g>
     </g>
     <g id="text_30">
      <!-- 0.992 -->
      <g transform="translate(437.608239 191.503389) scale(0.1 -0.1)">
       <use xlink:href="#DejaVuSans-30"/>
       <use xlink:href="#DejaVuSans-2e" x="63.623047"/>
       <use xlink:href="#DejaVuSans-39" x="95.410156"/>
       <use xlink:href="#DejaVuSans-39" x="159.033203"/>
       <use xlink:href="#DejaVuSans-32" x="222.65625"/>
      </g>
     </g>
    </g>
    <g id="ytick_14">
     <g id="line2d_32">
      <g>
       <use xlink:href="#mabfc0e5fd6" x="473.236364" y="154.728128" style="stroke: #000000; stroke-width: 0.8"/>
      </g>
     </g>
     <g id="text_31">
      <!-- 0.994 -->
      <g transform="translate(437.608239 158.527347) scale(0.1 -0.1)">
       <use xlink:href="#DejaVuSans-30"/>
       <use xlink:href="#DejaVuSans-2e" x="63.623047"/>
       <use xlink:href="#DejaVuSans-39" x="95.410156"/>
       <use xlink:href="#DejaVuSans-39" x="159.033203"/>
       <use xlink:href="#DejaVuSans-34" x="222.65625"/>
      </g>
     </g>
    </g>
    <g id="ytick_15">
     <g id="line2d_33">
      <g>
       <use xlink:href="#mabfc0e5fd6" x="473.236364" y="121.752085" style="stroke: #000000; stroke-width: 0.8"/>
      </g>
     </g>
     <g id="text_32">
      <!-- 0.996 -->
      <g transform="translate(437.608239 125.551304) scale(0.1 -0.1)">
       <use xlink:href="#DejaVuSans-30"/>
       <use xlink:href="#DejaVuSans-2e" x="63.623047"/>
       <use xlink:href="#DejaVuSans-39" x="95.410156"/>
       <use xlink:href="#DejaVuSans-39" x="159.033203"/>
       <use xlink:href="#DejaVuSans-36" x="222.65625"/>
      </g>
     </g>
    </g>
    <g id="ytick_16">
     <g id="line2d_34">
      <g>
       <use xlink:href="#mabfc0e5fd6" x="473.236364" y="88.776043" style="stroke: #000000; stroke-width: 0.8"/>
      </g>
     </g>
     <g id="text_33">
      <!-- 0.998 -->
      <g transform="translate(437.608239 92.575261) scale(0.1 -0.1)">
       <use xlink:href="#DejaVuSans-30"/>
       <use xlink:href="#DejaVuSans-2e" x="63.623047"/>
       <use xlink:href="#DejaVuSans-39" x="95.410156"/>
       <use xlink:href="#DejaVuSans-39" x="159.033203"/>
       <use xlink:href="#DejaVuSans-38" x="222.65625"/>
      </g>
     </g>
    </g>
    <g id="ytick_17">
     <g id="line2d_35">
      <g>
       <use xlink:href="#mabfc0e5fd6" x="473.236364" y="55.8" style="stroke: #000000; stroke-width: 0.8"/>
      </g>
     </g>
     <g id="text_34">
      <!-- 1.000 -->
      <g transform="translate(437.608239 59.599219) scale(0.1 -0.1)">
       <use xlink:href="#DejaVuSans-31"/>
       <use xlink:href="#DejaVuSans-2e" x="63.623047"/>
       <use xlink:href="#DejaVuSans-30" x="95.410156"/>
       <use xlink:href="#DejaVuSans-30" x="159.033203"/>
       <use xlink:href="#DejaVuSans-30" x="222.65625"/>
      </g>
     </g>
    </g>
    <g id="text_35">
     <!-- Accuracy -->
     <g transform="translate(430.280739 218.325) rotate(-90) scale(0.16 -0.16)">
      <defs>
       <path id="DejaVuSans-41" d="M 2188 4044 
L 1331 1722 
L 3047 1722 
L 2188 4044 
z
M 1831 4666 
L 2547 4666 
L 4325 0 
L 3669 0 
L 3244 1197 
L 1141 1197 
L 716 0 
L 50 0 
L 1831 4666 
z
" transform="scale(0.015625)"/>
       <path id="DejaVuSans-75" d="M 544 1381 
L 544 3500 
L 1119 3500 
L 1119 1403 
Q 1119 906 1312 657 
Q 1506 409 1894 409 
Q 2359 409 2629 706 
Q 2900 1003 2900 1516 
L 2900 3500 
L 3475 3500 
L 3475 0 
L 2900 0 
L 2900 538 
Q 2691 219 2414 64 
Q 2138 -91 1772 -91 
Q 1169 -91 856 284 
Q 544 659 544 1381 
z
M 1991 3584 
L 1991 3584 
z
" transform="scale(0.015625)"/>
       <path id="DejaVuSans-79" d="M 2059 -325 
Q 1816 -950 1584 -1140 
Q 1353 -1331 966 -1331 
L 506 -1331 
L 506 -850 
L 844 -850 
Q 1081 -850 1212 -737 
Q 1344 -625 1503 -206 
L 1606 56 
L 191 3500 
L 800 3500 
L 1894 763 
L 2988 3500 
L 3597 3500 
L 2059 -325 
z
" transform="scale(0.015625)"/>
      </defs>
      <use xlink:href="#DejaVuSans-41"/>
      <use xlink:href="#DejaVuSans-63" x="66.658203"/>
      <use xlink:href="#DejaVuSans-63" x="121.638672"/>
      <use xlink:href="#DejaVuSans-75" x="176.619141"/>
      <use xlink:href="#DejaVuSans-72" x="239.998047"/>
      <use xlink:href="#DejaVuSans-61" x="281.111328"/>
      <use xlink:href="#DejaVuSans-63" x="342.390625"/>
      <use xlink:href="#DejaVuSans-79" x="397.371094"/>
     </g>
    </g>
   </g>
   <g id="line2d_36">
    <path d="M 487.071074 290.472912 
L 487.625572 270.164121 
L 488.180069 179.906216 
L 488.734567 125.750097 
L 489.289064 134.776772 
L 489.843562 103.185867 
L 490.398059 96.416598 
L 490.952556 85.134482 
L 492.061551 80.621636 
L 492.616049 80.621636 
L 493.170546 73.851384 
L 493.725043 76.107808 
L 494.279541 62.569269 
L 494.834038 62.569269 
L 495.388536 58.056423 
L 495.943033 64.825692 
L 496.497531 58.056423 
L 497.052028 80.621636 
L 497.606525 80.621636 
L 498.161023 64.825692 
L 498.71552 67.082115 
L 499.270018 55.8 
L 499.824515 60.312846 
L 500.379013 55.8 
L 501.488007 55.8 
L 502.042505 58.056423 
L 502.597002 55.8 
L 503.1515 60.312846 
L 503.705997 94.160175 
L 504.260495 60.312846 
L 504.814992 55.8 
L 505.369489 55.8 
L 505.923987 58.056423 
L 506.478484 55.8 
L 507.032982 58.056423 
L 507.587479 55.8 
L 508.141977 60.312846 
L 508.696474 98.673021 
L 509.250971 60.312846 
L 509.805469 55.8 
L 510.359966 58.056423 
L 511.468961 58.056423 
L 512.023458 55.8 
L 512.577956 58.056423 
L 513.132453 62.569269 
L 513.686951 58.056423 
L 514.241448 55.8 
L 514.795946 55.8 
L 515.350443 60.312846 
L 515.90494 55.8 
L 516.459438 55.8 
L 517.013935 58.056423 
L 517.568433 55.8 
L 521.449915 55.8 
L 522.004412 76.107808 
L 522.55891 82.878059 
L 523.113407 64.825692 
L 523.667904 55.8 
L 533.648858 55.8 
L 534.203355 82.878059 
L 534.757853 78.364231 
L 535.31235 60.312846 
L 535.866848 55.8 
L 536.421345 55.8 
L 536.975843 60.312846 
L 537.53034 55.8 
L 539.74833 55.8 
L 540.302827 58.056423 
L 540.857325 55.8 
L 541.411822 55.8 
L 541.966319 71.594961 
L 542.520817 76.107808 
L 543.075314 58.056423 
L 543.629812 55.8 
L 546.956796 55.8 
L 547.511294 62.569269 
L 549.174786 55.8 
L 550.283781 55.8 
L 550.838278 62.569269 
L 552.50177 55.8 
L 553.610765 55.8 
L 554.165263 71.594961 
L 554.71976 91.903752 
L 555.274258 55.8 
L 555.828755 60.312846 
L 556.93775 55.8 
L 557.492247 55.8 
L 558.046745 58.056423 
L 558.601242 58.056423 
L 559.15574 55.8 
L 563.037222 55.8 
L 563.591719 67.082115 
L 564.146216 60.312846 
L 564.700714 64.825692 
L 565.255211 55.8 
L 566.918704 55.8 
L 567.473201 60.312846 
L 568.582196 55.8 
L 569.691191 55.8 
L 570.245688 58.056423 
L 570.800185 55.8 
L 574.12717 55.8 
L 574.681667 67.082115 
L 575.236165 89.647329 
L 575.790662 60.312846 
L 576.34516 55.8 
L 580.226642 55.8 
L 580.781139 62.569269 
L 581.335637 55.8 
L 585.771616 55.8 
L 586.326113 67.082115 
L 586.880611 55.8 
L 587.435108 55.8 
L 587.989606 62.569269 
L 588.544103 67.082115 
L 589.098601 67.082115 
L 589.653098 58.056423 
L 590.207595 55.8 
L 590.762093 55.8 
L 591.31659 58.056423 
L 591.871088 55.8 
L 592.980082 55.8 
L 593.53458 64.825692 
L 594.089077 55.8 
L 595.75257 55.8 
L 596.307067 60.312846 
L 596.861564 71.594961 
L 597.416062 71.594961 
L 597.970559 58.056423 
L 598.525057 55.8 
L 604.070031 55.8 
L 604.624528 87.390906 
L 605.179026 58.056423 
L 605.733523 58.056423 
L 606.288021 55.8 
L 607.951513 55.8 
L 608.50601 62.569269 
L 609.060508 55.8 
L 612.94199 55.8 
L 613.496487 67.082115 
L 614.050985 60.312846 
L 615.159979 55.8 
L 621.813949 55.8 
L 622.368446 60.312846 
L 622.922943 67.082115 
L 623.477441 82.878059 
L 624.031938 62.569269 
L 624.586436 55.8 
L 632.3494 55.8 
L 632.903897 109.955136 
L 633.458394 58.056423 
L 634.012892 55.8 
L 634.567389 60.312846 
L 635.121887 62.569269 
L 635.676384 55.8 
L 636.230882 58.056423 
L 636.785379 55.8 
L 642.884851 55.8 
L 643.439348 82.878059 
L 643.993846 60.312846 
L 645.10284 55.8 
L 645.657338 58.056423 
L 646.211835 55.8 
L 646.766333 58.056423 
L 647.32083 55.8 
L 647.875328 55.8 
L 648.429825 58.056423 
L 648.984322 55.8 
L 651.202312 55.8 
L 651.756809 58.056423 
L 652.311307 55.8 
L 653.420302 55.8 
L 653.974799 62.569269 
L 654.529297 67.082115 
L 655.083794 55.8 
L 660.074271 55.8 
L 660.628768 82.878059 
L 661.183266 58.056423 
L 661.737763 67.082115 
L 662.292261 55.8 
L 662.846758 62.569269 
L 663.401255 60.312846 
L 663.955753 55.8 
L 664.51025 58.056423 
L 665.064748 58.056423 
L 665.619245 55.8 
L 672.827712 55.8 
L 673.382209 73.851384 
L 673.936706 71.594961 
L 674.491204 62.569269 
L 675.045701 55.8 
L 675.600199 60.312846 
L 676.154696 60.312846 
L 676.709194 55.8 
L 682.254168 55.8 
L 682.808665 62.569269 
L 684.472158 55.8 
L 690.571629 55.8 
L 691.126127 62.569269 
L 691.680624 58.056423 
L 692.235121 55.8 
L 692.789619 58.056423 
L 693.344116 55.8 
L 694.453111 55.8 
L 695.007609 78.364231 
L 695.562106 58.056423 
L 696.116603 62.569269 
L 696.671101 55.8 
L 698.334593 55.8 
L 698.889091 64.825692 
L 699.443588 55.8 
L 701.661578 55.8 
L 702.216075 60.312846 
L 702.770573 55.8 
L 708.870044 55.8 
L 709.424542 76.107808 
L 709.979039 58.056423 
L 710.533536 55.8 
L 716.078511 55.8 
L 717.187506 64.825692 
L 717.742003 55.8 
L 721.623485 55.8 
L 722.177982 58.056423 
L 722.73248 55.8 
L 723.286977 55.8 
L 723.841475 64.825692 
L 724.395972 67.082115 
L 724.95047 55.8 
L 725.504967 58.056423 
L 726.059464 55.8 
L 730.495444 55.8 
L 731.049941 58.056423 
L 731.604439 58.056423 
L 732.158936 55.8 
L 732.713433 60.312846 
L 733.267931 73.851384 
L 733.822428 67.082115 
L 734.376926 55.8 
L 736.040418 55.8 
L 736.594915 58.056423 
L 737.149413 58.056423 
L 737.70391 55.8 
L 743.803382 55.8 
L 744.357879 60.312846 
L 744.912377 71.594961 
L 745.466874 60.312846 
L 746.021372 58.056423 
L 746.575869 58.056423 
L 747.130367 55.8 
L 754.89333 55.8 
L 755.447828 60.312846 
L 756.002325 58.056423 
L 756.556823 58.056423 
L 757.11132 55.8 
L 760.992802 55.8 
L 761.5473 58.056423 
L 762.101797 62.569269 
L 762.656294 55.8 
L 763.765289 55.8 
L 763.765289 55.8 
" clip-path="url(#p94a8632ac6)" style="fill: none; stroke: #1f77b4; stroke-width: 1.5; stroke-linecap: square"/>
   </g>
   <g id="line2d_37">
    <path d="M 487.071074 307.8 
L 487.625572 199.800281 
L 488.180069 217.800562 
L 489.289064 217.800562 
L 489.843562 127.80014 
L 490.398059 73.800281 
L 490.952556 91.799579 
L 492.061551 55.8 
L 492.616049 91.799579 
L 493.170546 235.79986 
L 493.725043 55.8 
L 494.279541 55.8 
L 494.834038 73.800281 
L 495.388536 55.8 
L 495.943033 73.800281 
L 496.497531 55.8 
L 497.052028 253.80014 
L 497.606525 73.800281 
L 498.161023 55.8 
L 500.93351 55.8 
L 501.488007 73.800281 
L 502.042505 55.8 
L 502.597002 73.800281 
L 503.1515 55.8 
L 503.705997 91.799579 
L 504.260495 55.8 
L 508.141977 55.8 
L 508.696474 73.800281 
L 509.250971 55.8 
L 521.449915 55.8 
L 522.004412 73.800281 
L 522.55891 55.8 
L 541.411822 55.8 
L 541.966319 199.800281 
L 542.520817 55.8 
L 566.918704 55.8 
L 567.473201 109.79986 
L 568.027698 55.8 
L 588.544103 55.8 
L 589.098601 73.800281 
L 589.653098 55.8 
L 595.75257 55.8 
L 596.861564 91.799579 
L 597.416062 55.8 
L 612.387492 55.8 
L 612.94199 73.800281 
L 613.496487 55.8 
L 614.050985 55.8 
L 614.605482 73.800281 
L 615.159979 55.8 
L 622.368446 55.8 
L 622.922943 145.800421 
L 623.477441 55.8 
L 631.794902 55.8 
L 632.3494 307.8 
L 632.903897 73.800281 
L 633.458394 55.8 
L 660.074271 55.8 
L 660.628768 91.799579 
L 661.183266 55.8 
L 682.254168 55.8 
L 682.808665 91.799579 
L 683.363163 55.8 
L 690.017132 55.8 
L 690.571629 73.800281 
L 691.126127 55.8 
L 763.765289 55.8 
L 763.765289 55.8 
" clip-path="url(#p94a8632ac6)" style="fill: none; stroke: #ff7f0e; stroke-width: 1.5; stroke-linecap: square"/>
   </g>
   <g id="line2d_38">
    <path d="M 492.061551 55.8 
" clip-path="url(#p94a8632ac6)" style="fill: none; stroke: #ff0000; stroke-width: 1.5; stroke-linecap: square"/>
    <g clip-path="url(#p94a8632ac6)">
     <use xlink:href="#m8cc01f940b" x="492.061551" y="55.8" style="fill: #ff0000; stroke: #ff0000"/>
    </g>
   </g>
   <g id="patch_9">
    <path d="M 473.236364 320.4 
L 473.236364 43.2 
" style="fill: none; stroke: #000000; stroke-width: 0.8; stroke-linejoin: miter; stroke-linecap: square"/>
   </g>
   <g id="patch_10">
    <path d="M 777.6 320.4 
L 777.6 43.2 
" style="fill: none; stroke: #000000; stroke-width: 0.8; stroke-linejoin: miter; stroke-linecap: square"/>
   </g>
   <g id="patch_11">
    <path d="M 473.236364 320.4 
L 777.6 320.4 
" style="fill: none; stroke: #000000; stroke-width: 0.8; stroke-linejoin: miter; stroke-linecap: square"/>
   </g>
   <g id="patch_12">
    <path d="M 473.236364 43.2 
L 777.6 43.2 
" style="fill: none; stroke: #000000; stroke-width: 0.8; stroke-linejoin: miter; stroke-linecap: square"/>
   </g>
   <g id="text_36">
    <!-- Best epoch: 9 with accuracy: 100.0% -->
    <g transform="translate(514.221307 37.2) scale(0.12 -0.12)">
     <defs>
      <path id="DejaVuSans-25" d="M 4653 2053 
Q 4381 2053 4226 1822 
Q 4072 1591 4072 1178 
Q 4072 772 4226 539 
Q 4381 306 4653 306 
Q 4919 306 5073 539 
Q 5228 772 5228 1178 
Q 5228 1588 5073 1820 
Q 4919 2053 4653 2053 
z
M 4653 2450 
Q 5147 2450 5437 2106 
Q 5728 1763 5728 1178 
Q 5728 594 5436 251 
Q 5144 -91 4653 -91 
Q 4153 -91 3862 251 
Q 3572 594 3572 1178 
Q 3572 1766 3864 2108 
Q 4156 2450 4653 2450 
z
M 1428 4353 
Q 1159 4353 1004 4120 
Q 850 3888 850 3481 
Q 850 3069 1003 2837 
Q 1156 2606 1428 2606 
Q 1700 2606 1854 2837 
Q 2009 3069 2009 3481 
Q 2009 3884 1853 4118 
Q 1697 4353 1428 4353 
z
M 4250 4750 
L 4750 4750 
L 1831 -91 
L 1331 -91 
L 4250 4750 
z
M 1428 4750 
Q 1922 4750 2215 4408 
Q 2509 4066 2509 3481 
Q 2509 2891 2217 2550 
Q 1925 2209 1428 2209 
Q 931 2209 642 2551 
Q 353 2894 353 3481 
Q 353 4063 643 4406 
Q 934 4750 1428 4750 
z
" transform="scale(0.015625)"/>
     </defs>
     <use xlink:href="#DejaVuSans-42"/>
     <use xlink:href="#DejaVuSans-65" x="68.603516"/>
     <use xlink:href="#DejaVuSans-73" x="130.126953"/>
     <use xlink:href="#DejaVuSans-74" x="182.226562"/>
     <use xlink:href="#DejaVuSans-20" x="221.435547"/>
     <use xlink:href="#DejaVuSans-65" x="253.222656"/>
     <use xlink:href="#DejaVuSans-70" x="314.746094"/>
     <use xlink:href="#DejaVuSans-6f" x="378.222656"/>
     <use xlink:href="#DejaVuSans-63" x="439.404297"/>
     <use xlink:href="#DejaVuSans-68" x="494.384766"/>
     <use xlink:href="#DejaVuSans-3a" x="557.763672"/>
     <use xlink:href="#DejaVuSans-20" x="591.455078"/>
     <use xlink:href="#DejaVuSans-39" x="623.242188"/>
     <use xlink:href="#DejaVuSans-20" x="686.865234"/>
     <use xlink:href="#DejaVuSans-77" x="718.652344"/>
     <use xlink:href="#DejaVuSans-69" x="800.439453"/>
     <use xlink:href="#DejaVuSans-74" x="828.222656"/>
     <use xlink:href="#DejaVuSans-68" x="867.431641"/>
     <use xlink:href="#DejaVuSans-20" x="930.810547"/>
     <use xlink:href="#DejaVuSans-61" x="962.597656"/>
     <use xlink:href="#DejaVuSans-63" x="1023.876953"/>
     <use xlink:href="#DejaVuSans-63" x="1078.857422"/>
     <use xlink:href="#DejaVuSans-75" x="1133.837891"/>
     <use xlink:href="#DejaVuSans-72" x="1197.216797"/>
     <use xlink:href="#DejaVuSans-61" x="1238.330078"/>
     <use xlink:href="#DejaVuSans-63" x="1299.609375"/>
     <use xlink:href="#DejaVuSans-79" x="1354.589844"/>
     <use xlink:href="#DejaVuSans-3a" x="1406.519531"/>
     <use xlink:href="#DejaVuSans-20" x="1440.210938"/>
     <use xlink:href="#DejaVuSans-31" x="1471.998047"/>
     <use xlink:href="#DejaVuSans-30" x="1535.621094"/>
     <use xlink:href="#DejaVuSans-30" x="1599.244141"/>
     <use xlink:href="#DejaVuSans-2e" x="1662.867188"/>
     <use xlink:href="#DejaVuSans-30" x="1694.654297"/>
     <use xlink:href="#DejaVuSans-25" x="1758.277344"/>
    </g>
   </g>
   <g id="legend_2">
    <g id="patch_13">
     <path d="M 640.384375 315.4 
L 770.6 315.4 
Q 772.6 315.4 772.6 313.4 
L 772.6 270.365625 
Q 772.6 268.365625 770.6 268.365625 
L 640.384375 268.365625 
Q 638.384375 268.365625 638.384375 270.365625 
L 638.384375 313.4 
Q 638.384375 315.4 640.384375 315.4 
z
" style="fill: #ffffff; opacity: 0.8; stroke: #cccccc; stroke-linejoin: miter"/>
    </g>
    <g id="line2d_39">
     <path d="M 642.384375 276.464063 
L 652.384375 276.464063 
L 662.384375 276.464063 
" style="fill: none; stroke: #1f77b4; stroke-width: 1.5; stroke-linecap: square"/>
    </g>
    <g id="text_37">
     <!-- Training Accuracy -->
     <g transform="translate(670.384375 279.964063) scale(0.1 -0.1)">
      <use xlink:href="#DejaVuSans-54"/>
      <use xlink:href="#DejaVuSans-72" x="46.333984"/>
      <use xlink:href="#DejaVuSans-61" x="87.447266"/>
      <use xlink:href="#DejaVuSans-69" x="148.726562"/>
      <use xlink:href="#DejaVuSans-6e" x="176.509766"/>
      <use xlink:href="#DejaVuSans-69" x="239.888672"/>
      <use xlink:href="#DejaVuSans-6e" x="267.671875"/>
      <use xlink:href="#DejaVuSans-67" x="331.050781"/>
      <use xlink:href="#DejaVuSans-20" x="394.527344"/>
      <use xlink:href="#DejaVuSans-41" x="426.314453"/>
      <use xlink:href="#DejaVuSans-63" x="492.972656"/>
      <use xlink:href="#DejaVuSans-63" x="547.953125"/>
      <use xlink:href="#DejaVuSans-75" x="602.933594"/>
      <use xlink:href="#DejaVuSans-72" x="666.3125"/>
      <use xlink:href="#DejaVuSans-61" x="707.425781"/>
      <use xlink:href="#DejaVuSans-63" x="768.705078"/>
      <use xlink:href="#DejaVuSans-79" x="823.685547"/>
     </g>
    </g>
    <g id="line2d_40">
     <path d="M 642.384375 291.142187 
L 652.384375 291.142187 
L 662.384375 291.142187 
" style="fill: none; stroke: #ff7f0e; stroke-width: 1.5; stroke-linecap: square"/>
    </g>
    <g id="text_38">
     <!-- Validation Accuracy -->
     <g transform="translate(670.384375 294.642187) scale(0.1 -0.1)">
      <use xlink:href="#DejaVuSans-56"/>
      <use xlink:href="#DejaVuSans-61" x="60.658203"/>
      <use xlink:href="#DejaVuSans-6c" x="121.9375"/>
      <use xlink:href="#DejaVuSans-69" x="149.720703"/>
      <use xlink:href="#DejaVuSans-64" x="177.503906"/>
      <use xlink:href="#DejaVuSans-61" x="240.980469"/>
      <use xlink:href="#DejaVuSans-74" x="302.259766"/>
      <use xlink:href="#DejaVuSans-69" x="341.46875"/>
      <use xlink:href="#DejaVuSans-6f" x="369.251953"/>
      <use xlink:href="#DejaVuSans-6e" x="430.433594"/>
      <use xlink:href="#DejaVuSans-20" x="493.8125"/>
      <use xlink:href="#DejaVuSans-41" x="525.599609"/>
      <use xlink:href="#DejaVuSans-63" x="592.257812"/>
      <use xlink:href="#DejaVuSans-63" x="647.238281"/>
      <use xlink:href="#DejaVuSans-75" x="702.21875"/>
      <use xlink:href="#DejaVuSans-72" x="765.597656"/>
      <use xlink:href="#DejaVuSans-61" x="806.710938"/>
      <use xlink:href="#DejaVuSans-63" x="867.990234"/>
      <use xlink:href="#DejaVuSans-79" x="922.970703"/>
     </g>
    </g>
    <g id="line2d_41">
     <path d="M 642.384375 305.820312 
L 652.384375 305.820312 
L 662.384375 305.820312 
" style="fill: none; stroke: #ff0000; stroke-width: 1.5; stroke-linecap: square"/>
     <g>
      <use xlink:href="#m8cc01f940b" x="652.384375" y="305.820312" style="fill: #ff0000; stroke: #ff0000"/>
     </g>
    </g>
    <g id="text_39">
     <!-- best model -->
     <g transform="translate(670.384375 309.320312) scale(0.1 -0.1)">
      <use xlink:href="#DejaVuSans-62"/>
      <use xlink:href="#DejaVuSans-65" x="63.476562"/>
      <use xlink:href="#DejaVuSans-73" x="125"/>
      <use xlink:href="#DejaVuSans-74" x="177.099609"/>
      <use xlink:href="#DejaVuSans-20" x="216.308594"/>
      <use xlink:href="#DejaVuSans-6d" x="248.095703"/>
      <use xlink:href="#DejaVuSans-6f" x="345.507812"/>
      <use xlink:href="#DejaVuSans-64" x="406.689453"/>
      <use xlink:href="#DejaVuSans-65" x="470.166016"/>
      <use xlink:href="#DejaVuSans-6c" x="531.689453"/>
     </g>
    </g>
   </g>
  </g>
  <g id="text_40">
   <!-- Optimizer : Adam -->
   <g transform="translate(388.221094 14.798437) scale(0.1 -0.1)">
    <defs>
     <path id="DejaVuSans-4f" d="M 2522 4238 
Q 1834 4238 1429 3725 
Q 1025 3213 1025 2328 
Q 1025 1447 1429 934 
Q 1834 422 2522 422 
Q 3209 422 3611 934 
Q 4013 1447 4013 2328 
Q 4013 3213 3611 3725 
Q 3209 4238 2522 4238 
z
M 2522 4750 
Q 3503 4750 4090 4092 
Q 4678 3434 4678 2328 
Q 4678 1225 4090 567 
Q 3503 -91 2522 -91 
Q 1538 -91 948 565 
Q 359 1222 359 2328 
Q 359 3434 948 4092 
Q 1538 4750 2522 4750 
z
" transform="scale(0.015625)"/>
     <path id="DejaVuSans-7a" d="M 353 3500 
L 3084 3500 
L 3084 2975 
L 922 459 
L 3084 459 
L 3084 0 
L 275 0 
L 275 525 
L 2438 3041 
L 353 3041 
L 353 3500 
z
" transform="scale(0.015625)"/>
    </defs>
    <use xlink:href="#DejaVuSans-4f"/>
    <use xlink:href="#DejaVuSans-70" x="78.710938"/>
    <use xlink:href="#DejaVuSans-74" x="142.1875"/>
    <use xlink:href="#DejaVuSans-69" x="181.396484"/>
    <use xlink:href="#DejaVuSans-6d" x="209.179688"/>
    <use xlink:href="#DejaVuSans-69" x="306.591797"/>
    <use xlink:href="#DejaVuSans-7a" x="334.375"/>
    <use xlink:href="#DejaVuSans-65" x="386.865234"/>
    <use xlink:href="#DejaVuSans-72" x="448.388672"/>
    <use xlink:href="#DejaVuSans-20" x="489.501953"/>
    <use xlink:href="#DejaVuSans-3a" x="521.289062"/>
    <use xlink:href="#DejaVuSans-20" x="554.980469"/>
    <use xlink:href="#DejaVuSans-41" x="586.767578"/>
    <use xlink:href="#DejaVuSans-64" x="653.425781"/>
    <use xlink:href="#DejaVuSans-61" x="716.902344"/>
    <use xlink:href="#DejaVuSans-6d" x="778.181641"/>
   </g>
  </g>
 </g>
 <defs>
  <clipPath id="pb9f721fc58">
   <rect x="108" y="43.2" width="304.363636" height="277.2"/>
  </clipPath>
  <clipPath id="p94a8632ac6">
   <rect x="473.236364" y="43.2" width="304.363636" height="277.2"/>
  </clipPath>
 </defs>
</svg>
